<svg width="206" height="25" viewBox="0 0 206 25" fill="none" xmlns="http://www.w3.org/2000/svg">
<path d="M172.623 8.92935H163.22L160.316 0L157.403 8.92935L148 8.92044L155.615 14.4445L152.701 23.365L160.316 17.8498L167.922 23.365L165.017 14.4445L172.623 8.92935Z" fill="#00B67A"/>
<path d="M165.614 16.4936L164.966 14.4683L160.312 17.8831L165.614 16.4936Z" fill="#005128"/>
<path d="M89.5 24C95.8513 24 101 18.8513 101 12.5C101 6.14873 95.8513 1 89.5 1C83.1487 1 78 6.14873 78 12.5C78 18.8513 83.1487 24 89.5 24Z" fill="#FF4500"/>
<path d="M97.1699 12.5C97.1356 11.5738 96.358 10.8506 95.429 10.8821C95.0174 10.8963 94.6258 11.065 94.3285 11.348C93.0192 10.4561 91.4813 9.96731 89.9006 9.93301L90.6466 6.34551L93.1079 6.86291C93.1765 7.49465 93.7425 7.95202 94.3742 7.88342C95.0059 7.81481 95.4633 7.24882 95.3947 6.61707C95.3261 5.98533 94.7601 5.52796 94.1284 5.59657C93.7653 5.63373 93.4395 5.84526 93.2594 6.1597L90.4408 5.59657C90.2493 5.55369 90.0578 5.67375 90.0149 5.86813C90.0149 5.87099 90.0149 5.87099 90.0149 5.87385L89.1659 9.8644C87.5651 9.89013 86.0072 10.3818 84.6808 11.2794C84.0062 10.6448 82.9428 10.6762 82.3082 11.3537C81.6736 12.0283 81.7051 13.0917 82.3825 13.7263C82.514 13.8492 82.6655 13.955 82.8342 14.0293C82.8227 14.198 82.8227 14.3666 82.8342 14.5353C82.8342 17.1109 85.8357 19.2062 89.5375 19.2062C93.2394 19.2062 96.2408 17.1137 96.2408 14.5353C96.2523 14.3666 96.2523 14.198 96.2408 14.0293C96.8183 13.7406 97.1813 13.146 97.1699 12.5ZM85.6699 13.652C85.6699 13.0174 86.1873 12.5 86.8219 12.5C87.4565 12.5 87.9739 13.0174 87.9739 13.652C87.9739 14.2866 87.4565 14.804 86.8219 14.804C86.1844 14.7983 85.6699 14.2866 85.6699 13.652ZM92.3503 16.8136C91.5328 17.4282 90.5323 17.7426 89.5089 17.6997C88.4856 17.7426 87.4851 17.4282 86.6675 16.8136C86.5589 16.6821 86.5789 16.4848 86.7104 16.3762C86.8247 16.2819 86.9877 16.2819 87.1049 16.3762C87.7966 16.8822 88.6399 17.1394 89.4975 17.0994C90.3551 17.1452 91.2012 16.8993 91.9015 16.3991C92.0273 16.2762 92.2331 16.279 92.3561 16.4048C92.479 16.5306 92.4761 16.7364 92.3503 16.8593V16.8136ZM92.1445 14.844C91.5099 14.844 90.9925 14.3266 90.9925 13.692C90.9925 13.0574 91.5099 12.54 92.1445 12.54C92.7791 12.54 93.2965 13.0574 93.2965 13.692C93.3223 14.3266 92.8277 14.8612 92.1931 14.8869C92.1731 14.8869 92.156 14.8869 92.1359 14.8869L92.1445 14.844Z" fill="white"/>
<path d="M22.2875 6.59839H2.31061C1.83596 6.59839 1.45117 6.98317 1.45117 7.45783V21.9616C1.45117 22.4362 1.83596 22.821 2.31061 22.821H22.2875C22.7621 22.821 23.1469 22.4362 23.1469 21.9616V7.45783C23.1469 6.98317 22.7621 6.59839 22.2875 6.59839Z" fill="#4989F5"/>
<path d="M22.0363 6.47632H2.53696C1.93293 6.47632 1.46289 11.151 1.46289 11.7551L12.1413 22.8208H22.0363C22.6422 22.8192 23.133 22.3284 23.1346 21.7225V7.57439C23.1328 6.96859 22.6421 6.47797 22.0363 6.47632Z" fill="url(#paint0_linear_1870_43403)"/>
<path d="M6.4043 9.31498H12.6031V1.1792H7.33248L6.4043 9.31498Z" fill="#3C4BA6"/>
<path d="M18.8023 9.31498H12.6035V1.1792H17.8741L18.8023 9.31498ZM23.1466 2.72144L23.1543 2.74917C23.1524 2.73938 23.1487 2.73029 23.1466 2.72144Z" fill="#7BABF7"/>
<path d="M23.1542 2.74892L23.1465 2.72119C22.95 1.82127 22.1534 1.17954 21.2323 1.17896H17.874L18.8015 9.31497H25.0003L23.1542 2.74892Z" fill="#3F51B5"/>
<path d="M2.06042 2.72168L2.05273 2.74941C2.0546 2.73962 2.05833 2.73054 2.06042 2.72168Z" fill="#7BABF7"/>
<path d="M2.05236 2.74892L2.06005 2.72119C2.25657 1.82127 3.05309 1.17954 3.97422 1.17896H7.33274L6.40386 9.31497H0.205078L2.05236 2.74892Z" fill="#7BABF7"/>
<path fill-rule="evenodd" clip-rule="evenodd" d="M6.41599 9.31299C6.41599 11.0238 5.02912 12.4106 3.31835 12.4106C1.60758 12.4106 0.220703 11.0238 0.220703 9.31299H6.41599Z" fill="#709BE0"/>
<path fill-rule="evenodd" clip-rule="evenodd" d="M12.6103 9.31299C12.6103 11.0238 11.2235 12.4106 9.51268 12.4106C7.80191 12.4106 6.41504 11.0238 6.41504 9.31299H12.6103Z" fill="#3C4BA6"/>
<path fill-rule="evenodd" clip-rule="evenodd" d="M18.8056 9.31299C18.8056 11.0238 17.4188 12.4106 15.708 12.4106C13.9972 12.4106 12.6104 11.0238 12.6104 9.31299H18.8056Z" fill="#709BE0"/>
<path fill-rule="evenodd" clip-rule="evenodd" d="M25 9.31299C25 11.0238 23.6131 12.4106 21.9023 12.4106C20.1916 12.4106 18.8047 11.0238 18.8047 9.31299H25Z" fill="#3C4BA6"/>
<path d="M21.9024 17.7052C21.8914 17.5577 21.8732 17.423 21.8474 17.251H18.4683C18.4683 17.7236 18.4683 18.2393 18.4665 18.7122H20.424C20.3824 18.9325 20.2977 19.1425 20.1747 19.33C20.0517 19.5175 19.8929 19.6789 19.7074 19.8049C19.7074 19.8049 19.7074 19.7967 19.706 19.7965C19.4664 19.9538 19.1965 20.0592 18.9137 20.1057C18.6301 20.1576 18.3394 20.1563 18.0563 20.102C17.7689 20.0425 17.4967 19.9246 17.2568 19.7555C16.9026 19.5043 16.6294 19.1553 16.4707 18.7511C16.4586 18.7196 16.4474 18.6879 16.436 18.6558V18.6523L16.439 18.65C16.285 18.1979 16.2846 17.7077 16.4379 17.2555C16.5458 16.9382 16.7235 16.6491 16.9578 16.4095C17.5074 15.841 18.3287 15.6271 19.0859 15.8554C19.3762 15.9444 19.6415 16.1006 19.8603 16.3112L20.5207 15.6508C20.6372 15.5331 20.7581 15.4191 20.8702 15.2975C20.5354 14.9851 20.1423 14.7417 19.7134 14.5811C18.933 14.2981 18.0791 14.2906 17.2938 14.5599C17.2665 14.5692 17.2393 14.579 17.2123 14.5891C16.365 14.9076 15.668 15.5322 15.2589 16.3396C15.1145 16.6254 15.0093 16.9294 14.9462 17.2433C14.5721 19.1023 15.7064 20.9322 17.5378 21.424C18.1365 21.5844 18.7729 21.5804 19.3762 21.4434C19.9244 21.3196 20.4313 21.0562 20.8476 20.6788C21.282 20.2791 21.5933 19.7466 21.7565 19.181C21.8929 18.7018 21.9423 18.2019 21.9024 17.7052Z" fill="white"/>
<path d="M51.5 24C57.8513 24 63 18.8513 63 12.5C63 6.14873 57.8513 1 51.5 1C45.1487 1 40 6.14873 40 12.5C40 18.8513 45.1487 24 51.5 24Z" fill="#34E0A1"/>
<path d="M58.4668 10.0167L59.828 8.36906H56.8093C55.2981 7.22061 53.473 6.55176 51.4992 6.55176C49.5279 6.55176 47.7078 7.22205 46.1991 8.36906H43.1729L44.5341 10.0167C43.6997 10.8636 43.1766 12.0836 43.1766 13.4381C43.1766 15.9944 45.0396 18.0669 47.3373 18.0669C48.4288 18.0669 49.4233 17.5986 50.1657 16.8329L51.4992 18.4483L52.8327 16.8343C53.5751 17.6 54.5683 18.0669 55.6598 18.0669C57.9576 18.0669 59.823 15.9944 59.823 13.4381C59.8242 12.0822 59.3012 10.8623 58.4668 10.0167ZM47.3385 16.5707C45.7832 16.5707 44.5228 15.1685 44.5228 13.4381C44.5228 11.7078 45.7832 10.3055 47.3385 10.3055C48.8939 10.3055 50.1543 11.7078 50.1543 13.4381C50.1543 15.1685 48.8939 16.5707 47.3385 16.5707ZM51.5004 13.347C51.5004 11.2857 50.1531 9.5161 48.3746 8.76028C49.3363 8.31295 50.3913 8.06476 51.4992 8.06476C52.6071 8.06476 53.6633 8.31295 54.625 8.76028C52.8478 9.51751 51.5004 11.2857 51.5004 13.347ZM55.6611 16.5707C54.1057 16.5707 52.8453 15.1685 52.8453 13.4381C52.8453 11.7078 54.1057 10.3055 55.6611 10.3055C57.2165 10.3055 58.4769 11.7078 58.4769 13.4381C58.4769 15.1685 57.2164 16.5707 55.6611 16.5707ZM55.6611 11.7947C54.8456 11.7947 54.1851 12.5295 54.1851 13.4367C54.1851 14.344 54.8456 15.0787 55.6611 15.0787C56.4766 15.0787 57.137 14.344 57.137 13.4367C57.137 12.5309 56.4766 11.7947 55.6611 11.7947ZM48.8145 13.4381C48.8145 14.3454 48.154 15.0802 47.3385 15.0802C46.5231 15.0802 45.8626 14.3454 45.8626 13.4381C45.8626 12.5309 46.5231 11.7961 47.3385 11.7961C48.154 11.7947 48.8145 12.5309 48.8145 13.4381Z" fill="black"/>
<path d="M129.388 5H131.995L126.3 11.3538L133 20H127.754L123.645 14.7561L118.944 20H116.336L122.427 13.2038L116 5H121.379L125.093 9.79309L129.388 5ZM128.474 18.4769H129.918L120.594 6.44307H119.044L128.474 18.4769Z" fill="white"/>
<path d="M187.484 12.0372C187.078 12.689 186.908 14.7389 187.049 16.0981C187.098 16.5463 187.18 16.9205 187.297 17.1446C187.459 17.4531 187.732 17.6381 188.041 17.6484C188.24 17.6587 188.365 17.6237 192.107 16.4168C192.107 16.4168 193.769 15.8842 193.777 15.8801C194.192 15.7732 194.472 15.3907 194.499 14.9034C194.526 14.4017 194.269 13.9597 193.843 13.8013C193.843 13.8013 192.67 13.3223 192.668 13.3223C188.646 11.6588 188.466 11.593 188.263 11.591C187.951 11.5807 187.676 11.737 187.484 12.0372ZM196.479 24.4337C196.545 24.2445 196.553 24.115 196.564 20.1713C196.564 20.1713 196.572 18.4297 196.574 18.4112C196.6 17.9835 196.326 17.5949 195.875 17.4202C195.409 17.2413 194.909 17.3523 194.628 17.7018C194.628 17.7018 193.808 18.6785 193.804 18.6785C190.987 21.9971 190.868 22.1513 190.801 22.3467C190.758 22.4618 190.743 22.5852 190.756 22.7086C190.772 22.8854 190.852 23.0581 190.983 23.2205C191.637 23.9998 194.77 25.1554 195.77 24.9827C196.121 24.923 196.373 24.7277 196.479 24.4337ZM202.837 23.0622C203.782 22.6839 205.842 20.0561 205.988 19.0425C206.039 18.6909 205.928 18.3865 205.686 18.1933C205.528 18.074 205.408 18.0267 201.666 16.7951C201.666 16.7951 200.026 16.2523 200.004 16.242C199.606 16.0878 199.153 16.2317 198.849 16.608C198.532 16.9945 198.484 17.5065 198.739 17.891L199.399 18.9684C201.619 22.5852 201.789 22.8402 201.949 22.9656C202.195 23.1609 202.509 23.1938 202.837 23.0622ZM200.904 13.752C205.153 12.7198 205.319 12.6643 205.485 12.5533C205.744 12.3785 205.873 12.0886 205.85 11.7349C205.85 11.7246 205.852 11.7123 205.85 11.7C205.742 10.6513 203.913 7.92899 203.011 7.48692C202.691 7.33271 202.371 7.34299 202.107 7.52187C201.943 7.62879 201.822 7.79123 199.546 10.9145C199.546 10.9145 198.519 12.3189 198.507 12.3333C198.236 12.6643 198.232 13.1372 198.497 13.5443C198.771 13.9658 199.235 14.1694 199.659 14.0522C199.659 14.0522 199.643 14.083 199.639 14.0871C199.848 14.007 200.221 13.9144 200.904 13.752ZM196.637 10.2319C196.564 8.54172 196.057 1.01828 195.998 0.670795C195.912 0.354148 195.666 0.130029 195.313 0.0395583C194.226 -0.229797 190.079 0.936038 189.31 1.72971C189.062 1.98878 188.972 2.30543 189.046 2.58712C189.167 2.83592 194.306 10.9454 194.306 10.9454C195.065 12.1811 195.686 11.9878 195.889 11.9241C196.09 11.8645 196.707 11.6712 196.637 10.2319Z" fill="#BF2519"/>
<defs>
<linearGradient id="paint0_linear_1870_43403" x1="1.46289" y1="7595.81" x2="23060" y2="7595.81" gradientUnits="userSpaceOnUse">
<stop offset="0.03" stop-color="#4079D8"/>
<stop offset="1" stop-color="#4989F5"/>
</linearGradient>
</defs>
</svg>
